<?xml version="1.0" encoding="utf-8"?>
<!-- created with dmn-js / http://bpmn.io -->
<!DOCTYPE svg PUBLIC "-//W3C//DTD SVG 1.1//EN" "http://www.w3.org/Graphics/SVG/1.1/DTD/svg11.dtd">
<svg xmlns="http://www.w3.org/2000/svg" xmlns:xlink="http://www.w3.org/1999/xlink" width="807" height="267" viewBox="150 75 807 267" version="1.1"><defs><marker id="association-start" viewBox="0 0 20 20" refX="1" refY="10" markerWidth="10" markerHeight="10" orient="auto"><path d="M 11 5 L 1 10 L 11 15" style="stroke-width: 1.5px; stroke-linecap: round; stroke-dasharray: 10000, 1; fill: none; stroke: black;"></path></marker><marker id="association-end" viewBox="0 0 20 20" refX="12" refY="10" markerWidth="10" markerHeight="10" orient="auto"><path d="M 1 5 L 11 10 L 1 15" style="stroke-width: 1.5px; stroke-linecap: round; stroke-dasharray: 10000, 1; fill: none; stroke: black;"></path></marker><marker id="information-requirement-end" viewBox="0 0 20 20" refX="11" refY="10" markerWidth="20" markerHeight="20" orient="auto"><path d="M 1 5 L 11 10 L 1 15 Z" style="stroke-width: 1px; stroke-linecap: round; stroke-dasharray: 10000, 1;"></path></marker><marker id="knowledge-requirement-end" viewBox="0 0 20 20" refX="11" refY="10" markerWidth="16" markerHeight="16" orient="auto"><path d="M 1 3 L 11 10 L 1 17" style="stroke-width: 2px; stroke-linecap: round; stroke-dasharray: 10000, 1; fill: none; stroke: black;"></path></marker><marker id="authority-requirement-end" viewBox="0 0 20 20" refX="3" refY="3" markerWidth="18" markerHeight="18" orient="auto"><circle cx="3" cy="3" r="3" style="stroke-width: 1px; stroke-linecap: round; stroke-dasharray: 10000, 1;"></circle></marker></defs><g class="djs-group"><g class="djs-element djs-shape" data-element-id="Priority" style="display: block;" transform="matrix(1 0 0 1 429 81)"><g class="djs-visual"><rect x="0" y="0" width="180" height="80" rx="0" ry="0" style="stroke: black; stroke-width: 2px; fill: white;"/><text class="djs-label" style="font-family: Arial, sans-serif; font-size: 12px;"><tspan x="43.1484375" y="43.5">Priorität festlegen</tspan></text></g><rect class="djs-hit djs-hit-all" x="0" y="0" width="180" height="80" style="fill: none; stroke-opacity: 0; stroke: white; stroke-width: 15px;"/><rect x="-6" y="-6" width="192" height="92" class="djs-outline" style="fill: none;"/></g></g><g class="djs-group"><g class="djs-element djs-shape" data-element-id="InputData_0tqav08" style="display: block;" transform="matrix(1 0 0 1 281 280)"><g class="djs-visual"><rect x="0" y="0" width="125" height="45" rx="22" ry="22" style="stroke: black; stroke-width: 2px; fill: white;"/><text class="djs-label" style="font-family: Arial, sans-serif; font-size: 12px;"><tspan x="16.96875" y="26">Kundenkategorie</tspan></text></g><rect class="djs-hit djs-hit-all" x="0" y="0" width="125" height="45" style="fill: none; stroke-opacity: 0; stroke: white; stroke-width: 15px;"/><rect x="-6" y="-6" width="137" height="57" class="djs-outline" style="fill: none;"/></g></g><g class="djs-group"><g class="djs-element djs-shape" data-element-id="InputData_1iv6i4e" style="display: block;" transform="matrix(1 0 0 1 498 287)"><g class="djs-visual"><rect x="0" y="0" width="125" height="45" rx="22" ry="22" style="stroke: black; stroke-width: 2px; fill: white;"/><text class="djs-label" style="font-family: Arial, sans-serif; font-size: 12px;"><tspan x="51.3359375" y="26">Neu</tspan></text></g><rect class="djs-hit djs-hit-all" x="0" y="0" width="125" height="45" style="fill: none; stroke-opacity: 0; stroke: white; stroke-width: 15px;"/><rect x="-6" y="-6" width="137" height="57" class="djs-outline" style="fill: none;"/></g></g><g class="djs-group"><g class="djs-element djs-shape" data-element-id="InputData_1q8pm6b" style="display: block;" transform="matrix(1 0 0 1 726 291)"><g class="djs-visual"><rect x="0" y="0" width="125" height="45" rx="22" ry="22" style="stroke: black; stroke-width: 2px; fill: white;"/><text class="djs-label" style="font-family: Arial, sans-serif; font-size: 12px;"><tspan x="32.984375" y="26">Entfernung</tspan></text></g><rect class="djs-hit djs-hit-all" x="0" y="0" width="125" height="45" style="fill: none; stroke-opacity: 0; stroke: white; stroke-width: 15px;"/><rect x="-6" y="-6" width="137" height="57" class="djs-outline" style="fill: none;"/></g></g><g class="djs-group"><g class="djs-element djs-shape" data-element-id="KnowledgeSource_1eob3c4" style="display: block;" transform="matrix(1 0 0 1 156 86)"><g class="djs-visual"><path d="m 0,4.725 l 0,53.598461538461535 c 30.4258,19.093846153846155 49.416399999999996,-4.070769230769231 68.6112,-6.493846153846154 c 12.456199999999997,-2.229230769230769 20.215799999999998,1.550769230769231 31.4468,6.009230769230769 l 0,-52.92z" style="fill: white; stroke-width: 2px; stroke: black;"/><text class="djs-label" style="font-family: Arial, sans-serif; font-size: 12px;"><tspan x="7.65625" y="28">Auftragsrichlinie</tspan><tspan x="46.5" y="42">n</tspan></text></g><rect class="djs-hit djs-hit-all" x="0" y="0" width="100" height="63" style="fill: none; stroke-opacity: 0; stroke: white; stroke-width: 15px;"/><rect x="-6" y="-6" width="112" height="75" class="djs-outline" style="fill: none;"/></g></g><g class="djs-group"><g class="djs-element djs-shape" data-element-id="BusinessKnowledgeModel_0wt1ca2" style="display: block;" transform="matrix(1 0 0 1 816 111)"><g class="djs-visual"><path d="m 0,13.799999999999999 l 14.904000000000002,-13.493333333333332 l 117.936,0 l 0,30.46222222222222 l -14.904000000000002,13.493333333333332 l -117.828,0z" style="fill: white; stroke-width: 2px; stroke: black;"/><text class="djs-label" style="font-family: Arial, sans-serif; font-size: 12px;"><tspan x="9.96875" y="19.5">Entfernungsberechnu</tspan><tspan x="60.6640625" y="33.5">ng</tspan></text></g><rect class="djs-hit djs-hit-all" x="0" y="0" width="135" height="46" style="fill: none; stroke-opacity: 0; stroke: white; stroke-width: 15px;"/><rect x="-6" y="-6" width="147" height="58" class="djs-outline" style="fill: none;"/></g></g><g class="djs-group"><g class="djs-element djs-connection" data-element-id="connection_52" style="display: block;"><g class="djs-visual"><polyline points="366,280 481,161 " style="fill: none; stroke: black; stroke-width: 1px; stroke-linecap: round; stroke-linejoin: round; marker-end: url('#information-requirement-end');"/></g><polyline points="366,280 481,161 " class="djs-hit djs-hit-stroke" style="fill: none; stroke-opacity: 0; stroke: white; stroke-width: 15px;"/><rect x="360" y="155" width="127" height="131" class="djs-outline" style="fill: none;"/></g></g><g class="djs-group"><g class="djs-element djs-connection" data-element-id="connection_53" style="display: block;"><g class="djs-visual"><polyline points="557,287 533,166 " style="fill: none; stroke: black; stroke-width: 1px; stroke-linecap: round; stroke-linejoin: round; marker-end: url('#information-requirement-end');"/></g><polyline points="557,287 533,166 " class="djs-hit djs-hit-stroke" style="fill: none; stroke-opacity: 0; stroke: white; stroke-width: 15px;"/><rect x="527" y="160" width="36" height="133" class="djs-outline" style="fill: none;"/></g></g><g class="djs-group"><g class="djs-element djs-connection" data-element-id="connection_54" style="display: block;"><g class="djs-visual"><polyline points="757,291 575,161 " style="fill: none; stroke: black; stroke-width: 1px; stroke-linecap: round; stroke-linejoin: round; marker-end: url('#information-requirement-end');"/></g><polyline points="757,291 575,161 " class="djs-hit djs-hit-stroke" style="fill: none; stroke-opacity: 0; stroke: white; stroke-width: 15px;"/><rect x="569" y="155" width="194" height="142" class="djs-outline" style="fill: none;"/></g></g><g class="djs-group"><g class="djs-element djs-connection" data-element-id="connection_55" style="display: block;"><g class="djs-visual"><polyline points="816,132 609,126 " style="fill: none; stroke: black; stroke-width: 1px; stroke-dasharray: 5; stroke-linecap: round; stroke-linejoin: round; marker-end: url('#knowledge-requirement-end');"/></g><polyline points="816,132 609,126 " class="djs-hit djs-hit-stroke" style="fill: none; stroke-opacity: 0; stroke: white; stroke-width: 15px;"/><rect x="603" y="120" width="219" height="18" class="djs-outline" style="fill: none;"/></g></g><g class="djs-group"><g class="djs-element djs-connection" data-element-id="connection_56" style="display: block;"><g class="djs-visual"><polyline points="256,118 429,117 " style="fill: none; stroke: black; stroke-width: 1.5px; stroke-dasharray: 5; stroke-linecap: round; stroke-linejoin: round; marker-end: url('#authority-requirement-end');"/></g><polyline points="256,118 429,117 " class="djs-hit djs-hit-stroke" style="fill: none; stroke-opacity: 0; stroke: white; stroke-width: 15px;"/><rect x="250" y="111" width="185" height="13" class="djs-outline" style="fill: none;"/></g></g></svg>